<svg width="64" height="64" viewBox="0 0 64 64" xmlns="http://www.w3.org/2000/svg">
  <!-- Mujer pelirroja -->
  <circle cx="32" cy="32" r="30" fill="#FFA07A" stroke="#FF6347" stroke-width="2"/>
  <!-- Cabello pelirrojo rizado -->
  <path d="M19 18 Q32 6 45 18 Q43 38 36 44 Q32 42 28 44 Q21 38 19 18" fill="#B22222"/>
  <!-- Rizos -->
  <circle cx="22" cy="28" r="2" fill="#CD853F"/>
  <circle cx="42" cy="26" r="2" fill="#CD853F"/>
  <circle cx="38" cy="36" r="1.5" fill="#CD853F"/>
  <!-- Cara -->
  <circle cx="32" cy="28" r="16" fill="#FDBCB4"/>
  <!-- Ojos verdes -->
  <circle cx="28" cy="24" r="2" fill="#228B22"/>
  <circle cx="36" cy="24" r="2" fill="#228B22"/>
  <!-- Pecas -->
  <circle cx="29" cy="30" r="0.5" fill="#D2691E"/>
  <circle cx="35" cy="28" r="0.5" fill="#D2691E"/>
  <circle cx="33" cy="32" r="0.5" fill="#D2691E"/>
  <circle cx="30" cy="26" r="0.5" fill="#D2691E"/>
  <!-- Nariz -->
  <line x1="32" y1="26" x2="32" y2="29" stroke="#E07A2C" stroke-width="0.5"/>
  <!-- Labios -->
  <ellipse cx="32" cy="33" rx="3" ry="1.5" fill="#FF4500"/>
</svg>
